<svg xmlns="http://www.w3.org/2000/svg" xmlns:xlink="http://www.w3.org/1999/xlink" viewBox="0,0,256,256" width="480px" height="480px" fill-rule="nonzero"><g fill="none" fill-rule="nonzero" stroke="none" stroke-width="1" stroke-linecap="butt" stroke-linejoin="miter" stroke-miterlimit="10" stroke-dasharray="" stroke-dashoffset="0" font-family="none" font-weight="none" font-size="none" text-anchor="none" style="mix-blend-mode: normal"><g transform="scale(5.33333,5.33333)"><path d="M37,45h-26c-1.657,0 -3,-1.343 -3,-3v-36c0,-1.657 1.343,-3 3,-3h19l10,10v29c0,1.657 -1.343,3 -3,3z" fill="#6e439f"></path><path d="M40,13h-10v-10z" fill="#d2a9ff"></path><path d="M30,13l10,10v-10z" fill="#6e2b98"></path><path d="M19,23h14v2h-14zM19,28h14v2h-14zM19,33h14v2h-14zM15,23h2v2h-2zM15,28h2v2h-2zM15,33h2v2h-2z" fill="#ffffff"></path></g></g></svg>