<?xml version="1.0" encoding="iso-8859-1"?>
<!-- Generator: Adobe Illustrator 25.2.3, SVG Export Plug-In . SVG Version: 6.00 Build 0)  -->
<svg version="1.1" baseProfile="basic" id="Layer_2_1_"
	 xmlns="http://www.w3.org/2000/svg" xmlns:xlink="http://www.w3.org/1999/xlink" x="0px" y="0px" viewBox="0 0 48 48"
	 xml:space="preserve">
<linearGradient id="SVGID_1_" gradientUnits="userSpaceOnUse" x1="24" y1="-166.8696" x2="24" y2="-248.8387" gradientTransform="matrix(1 0 0 -1 0 -154)">
	<stop  offset="0" style="stop-color:#21AD64"/>
	<stop  offset="1" style="stop-color:#088242"/>
</linearGradient>
<path style="fill:url(#SVGID_1_);" d="M39,15v27c0,1.105-0.895,2-2,2H11c-1.105,0-2-0.895-2-2V6c0-1.105,0.895-2,2-2h17L39,15z"/>
<path style="fill:#107C42;" d="M28,4v10c0,0.552,0.448,1,1,1h10L28,4z"/>
<path style="opacity:0.05;" d="M16,33c-1.103,0-2-0.897-2-2V21c0-1.103,0.897-2,2-2h16c1.103,0,2,0.897,2,2v10c0,1.103-0.897,2-2,2
	H16z M30,29v-1h-4v1H30z M22,29v-1h-4v1H22z M30,24v-1h-4v1H30z M22,24v-1h-4v1H22z"/>
<path style="opacity:0.07;" d="M16,32.5c-0.827,0-1.5-0.673-1.5-1.5V21c0-0.827,0.673-1.5,1.5-1.5h16c0.827,0,1.5,0.673,1.5,1.5v10
	c0,0.827-0.673,1.5-1.5,1.5H16z M30.5,29.5v-2h-5v2H30.5z M22.5,29.5v-2h-5v2H22.5z M30.5,24.5v-2h-5v2H30.5z M22.5,24.5v-2h-5v2
	H22.5z"/>
<path style="fill:#FFFFFF;" d="M32,20H16c-0.553,0-1,0.448-1,1v10c0,0.552,0.447,1,1,1h16c0.553,0,1-0.448,1-1V21
	C33,20.448,32.553,20,32,20z M31,25h-6v-3h6V25z M23,22v3h-6v-3H23z M17,27h6v3h-6V27z M25,30v-3h6v3H25z"/>
</svg>